<svg xmlns="http://www.w3.org/2000/svg" viewBox="0 0 64 64">
  <defs>
    <linearGradient id="g" x1="0%" y1="0%" x2="100%" y2="100%">
      <stop offset="0%" stop-color="#ff7a59" />
      <stop offset="100%" stop-color="#ffd16e" />
    </linearGradient>
  </defs>
  <rect width="64" height="64" rx="18" fill="#1f2733" />
  <rect x="8" y="8" width="48" height="48" rx="14" fill="url(#g)" />
  <path d="M40.8 23.6c-1.7-2.6-4.6-4-8.4-4-5.6 0-9.2 2.8-9.2 6.9 0 3.7 2.4 5.8 7.7 6.8l3 .5c2.8.4 3.9 1.2 3.9 2.6 0 1.7-1.8 2.8-4.7 2.8-3.1 0-5.2-1.1-6.7-3.3l-4.6 3.2c2.1 3.3 5.7 5.1 10.9 5.1 6.2 0 10.2-3 10.2-7.5 0-3.8-2.3-5.9-7.4-6.8l-3.1-.5c-2.9-.5-4.1-1.2-4.1-2.6 0-1.6 1.6-2.6 4.2-2.6 2.6 0 4.4 1 5.6 2.9l4.7-3.5Z" fill="#1f2733" />
</svg>
